<svg width="330" height="72" viewBox="0 0 330 72" fill="none" xmlns="http://www.w3.org/2000/svg">
<path d="M53.6426 37.8663L56 34.3942L48.2553 23L15 72H19.7148L48.2553 29.9276L53.6426 37.8663Z" fill="#00AEFF"/>
<path d="M61.6674 26.3983L64 22.9407L48.5402 0L0 72H4.66526L48.5402 6.91458L61.6674 26.3983Z" fill="#00AEFF"/>
<path d="M51 72H55.6223L65.9951 56.7791L76.3777 72H81L65.9844 50L51 72Z" fill="#00AEFF"/>
<path d="M66.005 26.0087L65.9975 26.0195L65.9842 26L63.6412 29.4798L63.6528 29.4972L35 72H39.6952L65.9942 32.9844L92.2939 72H96.9891H97L66.005 26.0087Z" fill="#00AEFF"/>
<path d="M146.493 43L145.113 39.6601H137.876L136.496 43H132.8L139.747 27.4139H143.309L150.278 43H146.493ZM139.034 36.9214H143.977L141.506 30.9542L139.034 36.9214ZM162.447 27.4139H166.032L159.286 43H155.723L148.999 27.4139H152.895L157.638 38.5468L162.447 27.4139ZM178.457 43L177.076 39.6601H169.84L168.459 43H164.763L171.71 27.4139H175.273L182.242 43H178.457ZM170.998 36.9214H175.941L173.469 30.9542L170.998 36.9214ZM188.98 43.2672C186.509 43.2672 184.015 42.5324 182.634 41.4637L183.859 38.7472C185.173 39.7047 187.132 40.3726 189.002 40.3726C191.14 40.3726 192.008 39.6601 192.008 38.7027C192.008 35.7859 182.946 37.7898 182.946 32.0007C182.946 29.351 185.084 27.1467 189.515 27.1467C191.474 27.1467 193.478 27.6143 194.925 28.5272L193.812 31.2659C192.365 30.4421 190.873 30.0413 189.492 30.0413C187.355 30.0413 186.531 30.8428 186.531 31.8225C186.531 34.6948 195.593 32.7132 195.593 38.4355C195.593 41.0406 193.433 43.2672 188.98 43.2672ZM209.703 43L208.322 39.6601H201.086L199.706 43H196.009L202.956 27.4139H206.519L213.488 43H209.703ZM202.244 36.9214H207.187L204.715 30.9542L202.244 36.9214ZM228.91 43H225.036L222.03 38.6582H221.852H218.712V43H215.105V27.4139H221.852C226.015 27.4139 228.621 29.5737 228.621 33.0694C228.621 35.4073 227.44 37.1218 225.414 37.9902L228.91 43ZM224.969 33.0694C224.969 31.355 223.856 30.353 221.651 30.353H218.712V35.7859H221.651C223.856 35.7859 224.969 34.7616 224.969 33.0694ZM243.123 43L241.743 39.6601H234.507L233.126 43H229.43L236.377 27.4139H239.939L246.909 43H243.123ZM235.664 36.9214H240.607L238.136 30.9542L235.664 36.9214ZM266.094 43H262.709L262.687 33.6483L258.1 41.3523H256.475L251.91 33.8487V43H248.526V27.4139H251.509L257.343 37.0995L263.088 27.4139H266.049L266.094 43ZM274.913 43.2672C272.441 43.2672 269.947 42.5324 268.567 41.4637L269.791 38.7472C271.105 39.7047 273.064 40.3726 274.935 40.3726C277.072 40.3726 277.941 39.6601 277.941 38.7027C277.941 35.7859 268.878 37.7898 268.878 32.0007C268.878 29.351 271.016 27.1467 275.447 27.1467C277.406 27.1467 279.41 27.6143 280.858 28.5272L279.744 31.2659C278.297 30.4421 276.805 30.0413 275.425 30.0413C273.287 30.0413 272.463 30.8428 272.463 31.8225C272.463 34.6948 281.525 32.7132 281.525 38.4355C281.525 41.0406 279.366 43.2672 274.913 43.2672Z" fill="#F5F5F5"/>
<path d="M111.737 58.1242C112.798 58.4197 113.496 59.2122 113.496 60.4614C113.496 62.0732 112.274 63 109.897 63H105.41V53.5977H109.628C111.79 53.5977 112.999 54.5111 112.999 56.0289C112.999 57.0497 112.476 57.7616 111.737 58.1242ZM109.507 54.6857H106.754V57.6944H109.507C110.877 57.6944 111.656 57.184 111.656 56.19C111.656 55.1961 110.877 54.6857 109.507 54.6857ZM109.843 61.912C111.334 61.912 112.14 61.4419 112.14 60.3539C112.14 59.2659 111.334 58.7824 109.843 58.7824H106.754V61.912H109.843ZM116.624 57.0765C117.08 56.2438 117.967 55.814 119.216 55.814V57.0631C119.109 57.0497 119.015 57.0497 118.921 57.0497C117.537 57.0497 116.677 57.8959 116.677 59.454V63H115.388V55.8811H116.624V57.0765ZM121.45 54.5111C120.953 54.5111 120.577 54.1484 120.577 53.6783C120.577 53.2082 120.953 52.8321 121.45 52.8321C121.947 52.8321 122.323 53.1947 122.323 53.6514C122.323 54.135 121.961 54.5111 121.45 54.5111ZM120.805 63V55.8811H122.095V63H120.805ZM129.983 53.0336H131.273V63H130.037V61.8717C129.459 62.6776 128.546 63.0806 127.498 63.0806C125.416 63.0806 123.899 61.6165 123.899 59.4406C123.899 57.2646 125.416 55.814 127.498 55.814C128.506 55.814 129.392 56.19 129.983 56.9557V53.0336ZM127.606 61.9523C128.962 61.9523 129.997 60.9584 129.997 59.4406C129.997 57.9228 128.962 56.9422 127.606 56.9422C126.236 56.9422 125.202 57.9228 125.202 59.4406C125.202 60.9584 126.236 61.9523 127.606 61.9523ZM139.3 55.8811H140.523V62.0329C140.523 64.5447 139.246 65.6864 136.829 65.6864C135.526 65.6864 134.21 65.3237 133.43 64.6253L134.048 63.6313C134.707 64.1954 135.741 64.5581 136.788 64.5581C138.467 64.5581 139.233 63.779 139.233 62.1672V61.6031C138.615 62.3418 137.688 62.7045 136.668 62.7045C134.612 62.7045 133.054 61.3076 133.054 59.2525C133.054 57.1974 134.612 55.814 136.668 55.814C137.729 55.814 138.696 56.2035 139.3 56.9825V55.8811ZM136.815 61.5762C138.239 61.5762 139.26 60.6226 139.26 59.2525C139.26 57.869 138.239 56.9422 136.815 56.9422C135.378 56.9422 134.357 57.869 134.357 59.2525C134.357 60.6226 135.378 61.5762 136.815 61.5762ZM143.631 54.5111C143.134 54.5111 142.758 54.1484 142.758 53.6783C142.758 53.2082 143.134 52.8321 143.631 52.8321C144.128 52.8321 144.504 53.1947 144.504 53.6514C144.504 54.135 144.141 54.5111 143.631 54.5111ZM142.986 63V55.8811H144.276V63H142.986ZM150.539 55.814C152.272 55.814 153.494 56.8079 153.494 58.9033V63H152.205V59.051C152.205 57.6541 151.506 56.9691 150.284 56.9691C148.914 56.9691 148.027 57.7884 148.027 59.3331V63H146.738V55.8811H147.974V56.9557C148.497 56.2303 149.411 55.814 150.539 55.814ZM161.507 55.8811H162.73V62.0329C162.73 64.5447 161.454 65.6864 159.036 65.6864C157.733 65.6864 156.417 65.3237 155.638 64.6253L156.256 63.6313C156.914 64.1954 157.948 64.5581 158.996 64.5581C160.675 64.5581 161.44 63.779 161.44 62.1672V61.6031C160.822 62.3418 159.896 62.7045 158.875 62.7045C156.82 62.7045 155.262 61.3076 155.262 59.2525C155.262 57.1974 156.82 55.814 158.875 55.814C159.936 55.814 160.903 56.2035 161.507 56.9825V55.8811ZM159.022 61.5762C160.446 61.5762 161.467 60.6226 161.467 59.2525C161.467 57.869 160.446 56.9422 159.022 56.9422C157.585 56.9422 156.564 57.869 156.564 59.2525C156.564 60.6226 157.585 61.5762 159.022 61.5762ZM175.732 53.5977H177.075V63H175.973L170.332 55.9886V63H168.989V53.5977H170.09L175.732 60.6091V53.5977ZM186.135 59.4809C186.135 59.5883 186.121 59.7495 186.108 59.8704H180.332C180.493 61.1195 181.501 61.9523 182.911 61.9523C183.744 61.9523 184.442 61.6702 184.966 61.0927L185.678 61.9255C185.033 62.6776 184.053 63.0806 182.871 63.0806C180.574 63.0806 179.043 61.5628 179.043 59.4406C179.043 57.3318 180.561 55.814 182.616 55.814C184.671 55.814 186.135 57.2915 186.135 59.4809ZM182.616 56.9019C181.38 56.9019 180.467 57.7347 180.332 58.9436H184.899C184.765 57.7481 183.865 56.9019 182.616 56.9019ZM194.359 59.4809C194.359 59.5883 194.346 59.7495 194.332 59.8704H188.557C188.718 61.1195 189.725 61.9523 191.136 61.9523C191.968 61.9523 192.667 61.6702 193.191 61.0927L193.903 61.9255C193.258 62.6776 192.277 63.0806 191.095 63.0806C188.798 63.0806 187.267 61.5628 187.267 59.4406C187.267 57.3318 188.785 55.814 190.84 55.814C192.895 55.814 194.359 57.2915 194.359 59.4809ZM190.84 56.9019C189.604 56.9019 188.691 57.7347 188.557 58.9436H193.123C192.989 57.7481 192.089 56.9019 190.84 56.9019ZM201.576 53.0336H202.866V63H201.63V61.8717C201.052 62.6776 200.139 63.0806 199.091 63.0806C197.009 63.0806 195.492 61.6165 195.492 59.4406C195.492 57.2646 197.009 55.814 199.091 55.814C200.099 55.814 200.985 56.19 201.576 56.9557V53.0336ZM199.199 61.9523C200.555 61.9523 201.59 60.9584 201.59 59.4406C201.59 57.9228 200.555 56.9422 199.199 56.9422C197.829 56.9422 196.794 57.9228 196.794 59.4406C196.794 60.9584 197.829 61.9523 199.199 61.9523ZM207.347 63.0806C206.165 63.0806 204.997 62.7179 204.406 62.2478L204.943 61.227C205.547 61.6568 206.514 61.9657 207.441 61.9657C208.637 61.9657 209.134 61.6031 209.134 60.9987C209.134 59.4003 204.634 60.7837 204.634 57.9496C204.634 56.6736 205.776 55.814 207.602 55.814C208.529 55.814 209.577 56.0557 210.195 56.4587L209.644 57.4795C208.999 57.0631 208.287 56.9154 207.589 56.9154C206.461 56.9154 205.91 57.3318 205.91 57.8959C205.91 59.5749 210.423 58.2048 210.423 60.9718C210.423 62.2612 209.241 63.0806 207.347 63.0806ZM225.259 55.8811H226.414L223.755 63H222.519L220.464 57.6004L218.382 63H217.146L214.5 55.8811H215.722L217.791 61.5494L219.94 55.8811H221.028L223.137 61.5762L225.259 55.8811ZM228.367 54.5111C227.87 54.5111 227.494 54.1484 227.494 53.6783C227.494 53.2082 227.87 52.8321 228.367 52.8321C228.864 52.8321 229.24 53.1947 229.24 53.6514C229.24 54.135 228.878 54.5111 228.367 54.5111ZM227.722 63V55.8811H229.012V63H227.722ZM235.074 61.6568L235.477 62.5836C235.087 62.9194 234.496 63.0806 233.919 63.0806C232.481 63.0806 231.662 62.2881 231.662 60.8509V56.9422H230.453V55.8811H231.662V54.323H232.951V55.8811H234.993V56.9422H232.951V60.7972C232.951 61.5628 233.354 61.9926 234.066 61.9926C234.442 61.9926 234.805 61.8717 235.074 61.6568ZM240.837 55.814C242.57 55.814 243.792 56.8079 243.792 58.9033V63H242.502V59.051C242.502 57.6541 241.804 56.9691 240.582 56.9691C239.212 56.9691 238.325 57.7884 238.325 59.3331V63H237.036V53.0336H238.325V56.8885C238.862 56.2035 239.749 55.814 240.837 55.814ZM249.973 63V53.5977H251.317V63H249.973ZM257.745 55.814C259.477 55.814 260.7 56.8079 260.7 58.9033V63H259.41V59.051C259.41 57.6541 258.712 56.9691 257.49 56.9691C256.119 56.9691 255.233 57.7884 255.233 59.3331V63H253.943V55.8811H255.179V56.9557C255.703 56.2303 256.616 55.814 257.745 55.814ZM266.686 61.6568L267.089 62.5836C266.699 62.9194 266.108 63.0806 265.531 63.0806C264.093 63.0806 263.274 62.2881 263.274 60.8509V56.9422H262.065V55.8811H263.274V54.323H264.564V55.8811H266.605V56.9422H264.564V60.7972C264.564 61.5628 264.967 61.9926 265.678 61.9926C266.055 61.9926 266.417 61.8717 266.686 61.6568ZM274.845 59.4809C274.845 59.5883 274.832 59.7495 274.819 59.8704H269.043C269.204 61.1195 270.211 61.9523 271.622 61.9523C272.455 61.9523 273.153 61.6702 273.677 61.0927L274.389 61.9255C273.744 62.6776 272.764 63.0806 271.582 63.0806C269.285 63.0806 267.753 61.5628 267.753 59.4406C267.753 57.3318 269.271 55.814 271.326 55.814C273.381 55.814 274.845 57.2915 274.845 59.4809ZM271.326 56.9019C270.091 56.9019 269.177 57.7347 269.043 58.9436H273.61C273.475 57.7481 272.575 56.9019 271.326 56.9019ZM276.636 63V53.0336H277.925V63H276.636ZM280.387 63V53.0336H281.677V63H280.387ZM284.784 54.5111C284.287 54.5111 283.911 54.1484 283.911 53.6783C283.911 53.2082 284.287 52.8321 284.784 52.8321C285.281 52.8321 285.657 53.1947 285.657 53.6514C285.657 54.135 285.294 54.5111 284.784 54.5111ZM284.139 63V55.8811H285.428V63H284.139ZM293.478 55.8811H294.7V62.0329C294.7 64.5447 293.424 65.6864 291.007 65.6864C289.704 65.6864 288.387 65.3237 287.608 64.6253L288.226 63.6313C288.884 64.1954 289.919 64.5581 290.966 64.5581C292.645 64.5581 293.411 63.779 293.411 62.1672V61.6031C292.793 62.3418 291.866 62.7045 290.845 62.7045C288.79 62.7045 287.232 61.3076 287.232 59.2525C287.232 57.1974 288.79 55.814 290.845 55.814C291.907 55.814 292.874 56.2035 293.478 56.9825V55.8811ZM290.993 61.5762C292.417 61.5762 293.438 60.6226 293.438 59.2525C293.438 57.869 292.417 56.9422 290.993 56.9422C289.556 56.9422 288.535 57.869 288.535 59.2525C288.535 60.6226 289.556 61.5762 290.993 61.5762ZM303.598 59.4809C303.598 59.5883 303.585 59.7495 303.571 59.8704H297.795C297.957 61.1195 298.964 61.9523 300.374 61.9523C301.207 61.9523 301.906 61.6702 302.429 61.0927L303.141 61.9255C302.497 62.6776 301.516 63.0806 300.334 63.0806C298.037 63.0806 296.506 61.5628 296.506 59.4406C296.506 57.3318 298.024 55.814 300.079 55.814C302.134 55.814 303.598 57.2915 303.598 59.4809ZM300.079 56.9019C298.843 56.9019 297.93 57.7347 297.795 58.9436H302.362C302.228 57.7481 301.328 56.9019 300.079 56.9019ZM309.19 55.814C310.923 55.814 312.145 56.8079 312.145 58.9033V63H310.855V59.051C310.855 57.6541 310.157 56.9691 308.935 56.9691C307.565 56.9691 306.678 57.7884 306.678 59.3331V63H305.389V55.8811H306.624V56.9557C307.148 56.2303 308.062 55.814 309.19 55.814ZM317.673 63.0806C315.484 63.0806 313.912 61.5628 313.912 59.4406C313.912 57.3183 315.484 55.814 317.673 55.814C318.949 55.814 320.01 56.3378 320.575 57.3318L319.594 57.9631C319.137 57.2646 318.439 56.9422 317.66 56.9422C316.263 56.9422 315.215 57.9228 315.215 59.4406C315.215 60.9852 316.263 61.9523 317.66 61.9523C318.439 61.9523 319.137 61.63 319.594 60.9315L320.575 61.5494C320.01 62.5433 318.949 63.0806 317.673 63.0806ZM328.573 59.4809C328.573 59.5883 328.559 59.7495 328.546 59.8704H322.77C322.932 61.1195 323.939 61.9523 325.349 61.9523C326.182 61.9523 326.881 61.6702 327.404 61.0927L328.116 61.9255C327.472 62.6776 326.491 63.0806 325.309 63.0806C323.012 63.0806 321.481 61.5628 321.481 59.4406C321.481 57.3318 322.999 55.814 325.054 55.814C327.109 55.814 328.573 57.2915 328.573 59.4809ZM325.054 56.9019C323.818 56.9019 322.905 57.7347 322.77 58.9436H327.337C327.203 57.7481 326.303 56.9019 325.054 56.9019Z" fill="#F5F5F5"/>
</svg>
