<svg width="97" height="72" viewBox="0 0 97 72" fill="none" xmlns="http://www.w3.org/2000/svg">
<path d="M53.6426 37.8663L56 34.3942L48.2553 23L15 72H19.7148L48.2553 29.9276L53.6426 37.8663Z" fill="#00AEFF"/>
<path d="M61.6674 26.3983L64 22.9407L48.5402 -6.50076e-07L0 72H4.66526L48.5402 6.91458L61.6674 26.3983Z" fill="#00AEFF"/>
<path d="M51 72H55.6223L65.9951 56.7791L76.3777 72H81L65.9844 50L51 72Z" fill="#00AEFF"/>
<path d="M66.005 26.0087L65.9975 26.0195L65.9842 26L63.6412 29.4798L63.6528 29.4972L35 72H39.6952L65.9942 32.9844L92.2939 72H96.9891H97L66.005 26.0087Z" fill="#00AEFF"/>
</svg>
